<?xml version="1.0" encoding="UTF-8" standalone="no"?>
<!DOCTYPE svg PUBLIC "-//W3C//DTD SVG 1.1//EN" "http://www.w3.org/Graphics/SVG/1.1/DTD/svg11.dtd">
<svg width="100%" height="100%" viewBox="0 0 2048 2048" version="1.1" xmlns="http://www.w3.org/2000/svg" xmlns:xlink="http://www.w3.org/1999/xlink" xml:space="preserve" xmlns:serif="http://www.serif.com/" style="fill-rule:evenodd;clip-rule:evenodd;stroke-linejoin:round;stroke-miterlimit:2;">
    <rect id="Artboard1" x="0" y="0" width="2048" height="2048" style="fill:none;"/>
    <g id="Artboard11" serif:id="Artboard1">
        <path d="M697.126,307.008L697.126,507.522L496.679,507.522L697.126,307.008Z" style="fill:white;"/>
        <path d="M491.35,1746.3L491.35,572.067L761.672,572.001L761.672,301.678L1556.62,301.678L1556.62,1746.3L491.35,1746.3ZM668.88,1011.58L668.88,1076.14L1379.04,1076.14L1379.04,1011.58L668.88,1011.58ZM668.88,1484.7L668.88,1549.26L1379.04,1549.26L1379.04,1484.7L668.88,1484.7ZM668.88,775.003L668.88,839.563L1379.04,839.563L1379.04,775.003L668.88,775.003ZM668.88,1248.14L668.88,1312.7L1379.04,1312.7L1379.04,1248.14L668.88,1248.14Z" style="fill:white;"/>
        <g transform="matrix(16.8132,0,0,16.8132,183.332,183.33)">
            <path d="M18.32,92.961L81.679,92.961L81.679,7.039L34.398,7.039L34.398,23.117L18.32,23.121L18.32,92.961ZM28.879,35.191L71.117,35.191L71.117,39.031L28.879,39.031L28.879,35.191ZM28.879,77.402L71.117,77.402L71.117,81.242L28.879,81.242L28.879,77.402ZM28.879,63.332L71.117,63.332L71.117,67.172L28.879,67.172L28.879,63.332ZM28.879,49.262L71.117,49.262L71.117,53.102L28.879,53.102L28.879,49.262ZM14.481,96.802L14.481,18.009L29.286,3.2L85.52,3.2L85.52,96.802L14.481,96.802ZM30.559,7.356L30.559,19.282L18.637,19.282L30.559,7.356Z"/>
        </g>
    </g>
</svg>
