<?xml version="1.0" encoding="UTF-8" standalone="no"?>
<!DOCTYPE svg PUBLIC "-//W3C//DTD SVG 1.1//EN" "http://www.w3.org/Graphics/SVG/1.1/DTD/svg11.dtd">
<svg width="100%" height="100%" viewBox="0 0 859 147" version="1.1" xmlns="http://www.w3.org/2000/svg" xmlns:xlink="http://www.w3.org/1999/xlink" xml:space="preserve" xmlns:serif="http://www.serif.com/" style="fill-rule:evenodd;clip-rule:evenodd;stroke-linejoin:round;stroke-miterlimit:2;">
    <g transform="matrix(1.54303,0,0,1.54303,-22.3446,-3.76464)">
        <path d="M18.32,92.961L81.679,92.961L81.679,7.039L34.398,7.039L34.398,23.117L18.32,23.121L18.32,92.961ZM28.879,35.191L71.117,35.191L71.117,39.031L28.879,39.031L28.879,35.191ZM28.879,77.402L71.117,77.402L71.117,81.242L28.879,81.242L28.879,77.402ZM28.879,63.332L71.117,63.332L71.117,67.172L28.879,67.172L28.879,63.332ZM28.879,49.262L71.117,49.262L71.117,53.102L28.879,53.102L28.879,49.262ZM14.481,96.802L14.481,18.009L29.286,3.2L85.52,3.2L85.52,96.802L14.481,96.802ZM30.559,7.356L30.559,19.282L18.637,19.282L30.559,7.356Z" style="fill:white;"/>
    </g>
    <g transform="matrix(1.05653,0,0,1.05653,-350.844,-253.362)">
        <g transform="matrix(192,0,0,192,450.23,377.618)">
            <path d="M0.075,-0L0.183,-0L0.183,-0.506L0.185,-0.506L0.507,-0L0.609,-0L0.609,-0.712L0.501,-0.712L0.501,-0.206L0.499,-0.206L0.177,-0.712L0.075,-0.712L0.075,-0Z" style="fill:white;fill-rule:nonzero;"/>
        </g>
        <g transform="matrix(192,0,0,192,581.531,377.618)">
            <path d="M0.051,-0.356C0.051,-0.275 0.053,-0.22 0.058,-0.191C0.061,-0.176 0.064,-0.163 0.068,-0.153C0.072,-0.143 0.077,-0.133 0.082,-0.122C0.099,-0.089 0.127,-0.06 0.165,-0.035C0.202,-0.009 0.249,0.005 0.305,0.006C0.362,0.005 0.409,-0.009 0.447,-0.035C0.484,-0.06 0.511,-0.089 0.528,-0.122C0.54,-0.139 0.548,-0.162 0.553,-0.191C0.557,-0.22 0.559,-0.275 0.559,-0.356C0.559,-0.439 0.557,-0.494 0.553,-0.522C0.548,-0.55 0.54,-0.573 0.528,-0.59C0.511,-0.623 0.484,-0.652 0.447,-0.678C0.409,-0.704 0.362,-0.717 0.305,-0.718C0.249,-0.717 0.202,-0.704 0.165,-0.678C0.127,-0.652 0.099,-0.623 0.082,-0.59C0.071,-0.573 0.063,-0.55 0.058,-0.522C0.053,-0.494 0.051,-0.439 0.051,-0.356ZM0.159,-0.356C0.159,-0.426 0.162,-0.474 0.167,-0.499C0.172,-0.523 0.181,-0.543 0.195,-0.558C0.206,-0.573 0.221,-0.585 0.24,-0.595C0.258,-0.604 0.28,-0.609 0.305,-0.61C0.331,-0.609 0.353,-0.604 0.372,-0.595C0.39,-0.585 0.404,-0.573 0.415,-0.558C0.429,-0.543 0.439,-0.523 0.444,-0.499C0.449,-0.474 0.451,-0.426 0.451,-0.356C0.451,-0.286 0.449,-0.239 0.444,-0.214C0.439,-0.189 0.429,-0.169 0.415,-0.154C0.404,-0.139 0.39,-0.127 0.372,-0.118C0.353,-0.107 0.331,-0.102 0.305,-0.102C0.28,-0.102 0.258,-0.107 0.24,-0.118C0.221,-0.127 0.206,-0.139 0.195,-0.154C0.181,-0.169 0.172,-0.189 0.167,-0.214C0.162,-0.239 0.159,-0.286 0.159,-0.356Z" style="fill:white;fill-rule:nonzero;"/>
        </g>
        <g transform="matrix(192,0,0,192,698.624,377.618)">
            <rect x="0.075" y="-0.712" width="0.108" height="0.712" style="fill:white;"/>
        </g>
        <g transform="matrix(192,0,0,192,748.124,377.618)">
            <path d="M0.075,-0L0.183,-0L0.183,-0.444L0.185,-0.444L0.334,-0.102L0.424,-0.102L0.573,-0.444L0.575,-0.444L0.575,-0L0.683,-0L0.683,-0.712L0.581,-0.712L0.381,-0.248L0.177,-0.712L0.075,-0.712L0.075,-0Z" style="fill:white;fill-rule:nonzero;"/>
        </g>
        <g transform="matrix(90.8634,0,0,90.8634,901.209,379.212)">
            <path d="M0.075,-0L0.53,-0L0.53,-0.102L0.183,-0.102L0.183,-0.311L0.479,-0.311L0.479,-0.407L0.183,-0.407L0.183,-0.61L0.53,-0.61L0.53,-0.712L0.075,-0.712L0.075,-0Z" style="fill:white;fill-rule:nonzero;"/>
        </g>
        <g transform="matrix(90.8634,0,0,90.8634,951.743,379.212)">
            <path d="M0.201,-0.255L0.304,-0.566L0.306,-0.566L0.409,-0.255L0.201,-0.255ZM0.495,-0L0.609,-0L0.35,-0.712L0.26,-0.712L0.001,-0L0.115,-0L0.17,-0.159L0.44,-0.159L0.495,-0Z" style="fill:white;fill-rule:nonzero;"/>
        </g>
        <g transform="matrix(90.8634,0,0,90.8634,1007.15,379.212)">
            <path d="M0.084,-0.173L0.013,-0.092C0.089,-0.027 0.18,0.006 0.285,0.006C0.448,0.004 0.532,-0.065 0.535,-0.201C0.535,-0.252 0.519,-0.296 0.488,-0.334C0.456,-0.373 0.407,-0.397 0.34,-0.406C0.306,-0.41 0.279,-0.414 0.26,-0.417C0.225,-0.424 0.199,-0.435 0.183,-0.452C0.167,-0.469 0.159,-0.487 0.159,-0.508C0.16,-0.542 0.172,-0.568 0.195,-0.585C0.217,-0.602 0.245,-0.61 0.278,-0.61C0.342,-0.609 0.401,-0.59 0.454,-0.555L0.514,-0.644C0.449,-0.691 0.372,-0.716 0.283,-0.718C0.21,-0.717 0.153,-0.698 0.113,-0.66C0.071,-0.622 0.051,-0.572 0.051,-0.51C0.051,-0.458 0.067,-0.414 0.1,-0.378C0.132,-0.343 0.179,-0.32 0.24,-0.31C0.274,-0.305 0.305,-0.301 0.334,-0.297C0.396,-0.286 0.427,-0.254 0.427,-0.201C0.425,-0.136 0.379,-0.103 0.286,-0.102C0.208,-0.103 0.141,-0.126 0.084,-0.173Z" style="fill:white;fill-rule:nonzero;"/>
        </g>
        <g transform="matrix(90.8634,0,0,90.8634,1059.29,379.212)">
            <path d="M0.199,-0L0.301,-0L0.301,-0.293L0.515,-0.712L0.401,-0.712L0.25,-0.396L0.099,-0.712L-0.015,-0.712L0.199,-0.293L0.199,-0Z" style="fill:white;fill-rule:nonzero;"/>
        </g>
    </g>
</svg>
